<?xml version="1.0" encoding="iso-8859-1"?>
<!-- Generator: Adobe Illustrator 18.1.1, SVG Export Plug-In . SVG Version: 6.00 Build 0)  -->
<svg xmlns="http://www.w3.org/2000/svg" xmlns:xlink="http://www.w3.org/1999/xlink" version="1.1" id="Capa_1" x="0px" y="0px" viewBox="0 0 14.837 14.837" style="enable-background:new 0 0 14.837 14.837;" xml:space="preserve" width="512px" height="512px">
<g>
	<path d="M10.303,0.1c0.287,0.905-0.276,3.465-0.593,3.903L9.842,4.13L7.466,6.506   C7.465,6.508,7.463,6.509,7.461,6.51c0,0.001-0.001,0.002-0.002,0.003L6.45,7.522L5.933,7.004l0.049-0.049   C6.035,6.902,6.011,6.791,5.93,6.709C5.847,6.627,5.737,6.604,5.683,6.657L5.127,7.212C5.074,7.265,5.098,7.376,5.18,7.458   s0.193,0.105,0.247,0.053l0.049-0.049l0.517,0.517L5.577,8.395L5.06,7.878l0.044-0.045c0.054-0.054,0.03-0.164-0.052-0.246   C4.969,7.505,4.86,7.482,4.806,7.533L4.251,8.09c-0.053,0.053-0.03,0.164,0.053,0.246C4.386,8.418,4.497,8.441,4.55,8.389   l0.053-0.053L5.12,8.853L4.724,9.249L4.207,8.731l0.049-0.049c0.053-0.052,0.03-0.164-0.053-0.245   C4.121,8.354,4.011,8.331,3.957,8.383L3.402,8.939c-0.053,0.054-0.03,0.164,0.052,0.246C3.537,9.267,3.647,9.29,3.702,9.237   L3.75,9.19l0.517,0.517L3.51,10.463c-0.026,0.025-0.047,0.054-0.067,0.083c-0.029,0.02-0.057,0.041-0.083,0.067   c-0.034,0.033-0.063,0.069-0.095,0.104l-0.003-0.004l-2.837,2.836c-0.088-0.064-0.211-0.061-0.291,0.019   c-0.085,0.085-0.086,0.226,0,0.312l0.893,0.893c0.086,0.086,0.227,0.086,0.313,0c0.086-0.086,0.086-0.226,0-0.313l-0.092-0.093   l1.369-1.368l1.666-1.649c0.013,0.336,0.143,0.667,0.397,0.922c0.538,0.537,1.412,0.537,1.948,0l2.57-2.569   c0.536-0.537,0.536-1.411,0-1.947C8.951,7.51,8.635,7.382,8.312,7.361l1.593-1.578l0.804-0.804l0.154,0.148   c0.488-0.316,2.834-0.958,3.766-0.488C15.718,4.734,10.017-0.805,10.303,0.1z M8.764,8.187c0.299,0.298,0.299,0.783,0,1.082   l-2.569,2.57c-0.299,0.297-0.784,0.297-1.083,0c-0.298-0.299-0.298-0.785,0-1.083l2.569-2.569C7.981,7.888,8.466,7.888,8.764,8.187   z" fill="#006DF0"/>
</g>
<g>
</g>
<g>
</g>
<g>
</g>
<g>
</g>
<g>
</g>
<g>
</g>
<g>
</g>
<g>
</g>
<g>
</g>
<g>
</g>
<g>
</g>
<g>
</g>
<g>
</g>
<g>
</g>
<g>
</g>
</svg>
